<?xml version="1.0" encoding="UTF-8" standalone="no"?>
<!-- Created with Inkscape (http://www.inkscape.org/) -->

<svg
   version="1.1"
   id="svg1"
   width="1694.8966"
   height="1694.8966"
   viewBox="0 0 1694.8966 1694.8966"
   xmlns:xlink="http://www.w3.org/1999/xlink"
   xmlns="http://www.w3.org/2000/svg"
   xmlns:svg="http://www.w3.org/2000/svg">
  <defs
     id="defs1">
    <linearGradient
       id="linearGradient1">
      <stop
         style="stop-color:#7800b8;stop-opacity:1;"
         offset="0"
         id="stop1" />
      <stop
         style="stop-color:#000000;stop-opacity:0;"
         offset="1"
         id="stop2" />
    </linearGradient>
    <radialGradient
       xlink:href="#linearGradient1"
       id="radialGradient2"
       cx="843.31037"
       cy="865.9586"
       fx="843.31037"
       fy="865.9586"
       r="755.58623"
       gradientTransform="matrix(1,0,0,0.88568833,0,98.989177)"
       gradientUnits="userSpaceOnUse" />
  </defs>
  <g
     id="g1">
    <path
       style="fill:url(#radialGradient2);stroke:#0000d5;stroke-opacity:1;stroke-width:4.5;stroke-dasharray:108,4.5;stroke-dashoffset:0"
       d="m 566.06898,1520.6897 v -14.4828 h 21.45233 c 51.20829,0 92.39662,-9.8436 120.17784,-28.7214 18.71483,-12.7171 33.75665,-32.3426 41.77679,-54.5073 l 4.93769,-13.646 34.50612,-224.2629 -32.04196,-220.10375 -12.23199,-0.0164 c -19.21613,-0.0257 -57.85328,-3.0442 -85.81826,-6.70446 C 544.24769,943.24767 445.45075,905.86535 369.47548,848.76106 351.04225,834.90634 317.10985,802.58482 302.08034,784.56537 262.23475,736.79302 232.10489,672.48525 217.90289,604.90094 208.60843,560.67056 272.90309,570.47137 271.46808,449.4433 270.15659,338.83155 205.56483,323.2832 201.94852,311.17242 187.3176,262.17442 155.5385,237.71972 99.724141,232.50856 l -12,-1.12039 v -17.21132 -17.21133 l 4.551724,-0.10264 c 60.461885,-1.36344 111.173285,9.04494 158.482765,32.52818 48.85181,24.24881 85.59593,61.23098 110.03401,110.74688 22.81548,46.22819 31.04026,82.27218 34.74746,152.27587 2.37442,44.83678 4.51658,66.7812 9.28916,95.15879 19.43444,115.55666 72.19753,207.51918 147.17076,256.50874 49.6225,32.42471 116.69826,49.701 185.37931,47.74702 l 18.2069,-0.51799 43.25713,-258.2069 c 25.59239,-152.76396 -44.742,-264.66598 -45.72365,-274.34966 -7.13546,-70.38943 -59.08266,-110.72152 -143.18866,-111.17242 -13.65517,-0.0732 -30.04138,0.23931 -36.41379,0.69448 l -11.58621,0.82759 v -16.55173 -16.55172 l 281.79312,66.12954 281.79313,-66.96664 v 17.44107 17.44108 l -8.6897,-1.29839 c -4.7793,-0.71411 -21.7241,-1.23967 -37.6552,-1.16791 -23.1175,0.10413 -31.9928,0.82729 -43.9603,3.58189 -51.63484,11.88492 -82.47265,37.92248 -96.23262,81.25291 -2.92616,9.21452 -4.49288,19.48818 -5.72135,37.51721 -1.01362,14.8759 -67.01857,115.81109 -43.55022,262.70559 l 41.3266,258.67401 19.86207,0.50726 c 82.10022,2.09677 157.61432,-22.23464 211.20612,-68.05272 47.4922,-40.60324 85.2307,-103.15481 106.5414,-176.59248 12.8522,-44.289 19.29,-87.07643 22.4134,-148.96552 2.8666,-56.79897 7.1452,-84.24838 18.4082,-118.09733 14.6676,-44.08096 32.6316,-73.88717 62.559,-103.79906 51.7472,-51.72027 123.797,-79.345 206.9446,-79.345 h 19.9273 v 17.1232 17.12319 l -16.5817,2.00966 c -22.418,2.71703 -32.9028,5.66095 -47.8417,13.43301 -22.8661,11.89627 -39.0305,32.24085 -48.0919,60.52867 l -4.8281,15.07226 -44.6994,97.89607 c -43.3811,95.00904 41.4007,135.18225 37.0698,159.98637 -12.2223,70.00085 -32.3927,122.82201 -66.3651,173.79311 -26.9197,40.38952 -70.2939,82.82848 -114.8262,112.35047 -71.1969,47.19877 -166.3169,79.81978 -270.6633,92.82284 -24.26246,3.02346 -61.98403,5.84536 -78.25885,5.85445 -8.21278,0.005 -12.30899,0.67657 -12.85885,2.10949 -0.4438,1.15652 -35.51793,101.52209 -34.73246,223.03449 1.41491,218.8893 36.81408,221.0201 40.27571,230.4908 12.19513,33.365 33.52788,55.3665 67.62815,69.7481 25.836,10.8963 56.2033,15.8652 96.9589,15.8652 h 21.5585 l -1.026,6.2069 c -0.5642,3.4138 -1.0341,9.9311 -1.0441,14.4828 l -0.018,8.2759 -285.56015,-49.9111 -268.92288,49.9111 z"
       id="path1" />
  </g>
</svg>
